<svg id="Desk" xmlns="http://www.w3.org/2000/svg" viewBox="0 0 1920 1080"><defs><style>.cls-1{fill:#d6b378;}.cls-2{fill:#6e757c;}</style></defs><rect class="cls-1" x="795.81" y="719.36" width="836.71" height="310"/><rect class="cls-2" x="293.64" y="129.29" width="1369.23" height="603.7" rx="30.87"/><path class="cls-1" d="M1632,130.29a29.9,29.9,0,0,1,29.87,29.87v542A29.9,29.9,0,0,1,1632,732H324.5a29.9,29.9,0,0,1-29.86-29.87v-542a29.9,29.9,0,0,1,29.86-29.87H1632m0-2H324.5a31.86,31.86,0,0,0-31.86,31.87v542A31.86,31.86,0,0,0,324.5,734H1632a31.87,31.87,0,0,0,31.87-31.87v-542A31.87,31.87,0,0,0,1632,128.29Z"/></svg>