<svg xmlns="http://www.w3.org/2000/svg" viewBox="0 0 1920 1080"><defs><style>.cls-1{fill:#d6b378;}.cls-2{fill:#6e757c;}.cls-3{fill:#942192;}.cls-4{fill:#ffbaff;}.cls-5{fill:#ff2424;}.cls-6{fill:#ff7b07;}.cls-7{fill:#ff0;}.cls-8{fill:#3c3;}.cls-9{fill:#1aa5ff;}.cls-10{fill:#1917ff;}.cls-11{fill:#7021dc;}.cls-12{fill:#fff;}.cls-13{fill:#e6e6e6;}.cls-14{fill:#fff5b9;}.cls-15{fill:#ffcfb9;}.cls-16{fill:#bfffef;}.cls-17{fill:#960;}.cls-18{fill:#51e0ff;}</style></defs><g id="Desk"><rect class="cls-1" x="777" y="681" width="837" height="310"/><rect class="cls-2" x="275" y="90" width="1369" height="604" rx="30.87"/><path class="cls-1" d="M1613.13,91A29.9,29.9,0,0,1,1643,120.87V663.13A29.9,29.9,0,0,1,1613.13,693H305.87A29.9,29.9,0,0,1,276,663.13V120.87A29.9,29.9,0,0,1,305.87,91H1613.13m0-2H305.87A31.87,31.87,0,0,0,274,120.87V663.13A31.87,31.87,0,0,0,305.87,695H1613.13A31.87,31.87,0,0,0,1645,663.13V120.87A31.87,31.87,0,0,0,1613.13,89Z"/></g><g id="Theresa"><rect class="cls-3" x="1086" y="840" width="110" height="110"/><rect class="cls-4" x="1446" y="840" width="10" height="110"/><rect class="cls-5" x="1426" y="840" width="10" height="110"/><rect class="cls-5" x="1406" y="840" width="10" height="110"/><rect class="cls-6" x="1386" y="840" width="10" height="110"/><rect class="cls-7" x="1366" y="840" width="10" height="110"/><rect class="cls-8" x="1346" y="840" width="10" height="110"/><rect class="cls-9" x="1525" y="840" width="10" height="110"/><rect class="cls-10" x="1505" y="840" width="10" height="110"/><rect class="cls-11" x="1485" y="840" width="10" height="110"/><rect class="cls-3" x="1466" y="840" width="10" height="110"/><rect class="cls-12" x="1206" y="840" width="110" height="110"/><rect x="1206" y="720" width="110" height="110"/><rect class="cls-13" x="369" y="157" width="230" height="230"/><rect class="cls-11" x="967" y="455" width="50" height="50"/><rect class="cls-10" x="1027" y="455" width="50" height="50"/><rect class="cls-14" x="1053" y="588" width="10" height="10"/><rect class="cls-14" x="1038" y="573" width="10" height="10"/><rect class="cls-14" x="1038" y="603" width="10" height="10"/><rect class="cls-15" x="369" y="396" width="469" height="230"/><rect class="cls-11" x="788" y="516" width="10" height="110"/><rect class="cls-11" x="808" y="516" width="10" height="110"/><rect class="cls-4" x="369" y="516" width="110" height="110"/><path class="cls-12" d="M1313,279V385H1207V279h106m2-2H1205V387h110V277Z"/><rect class="cls-15" x="1086" y="277" width="110" height="110"/><path class="cls-12" d="M955,578v46H909V578h46m2-2H907v50h50V576Z"/><path class="cls-12" d="M955,518v46H909V518h46m2-2H907v50h50V516Z"/><path class="cls-12" d="M955,458v46H909V458h46m2-2H907v50h50V456Z"/><path class="cls-12" d="M895,398v46H849V398h46m2-2H847v50h50V396Z"/><path class="cls-12" d="M895,578v46H849V578h46m2-2H847v50h50V576Z"/><path class="cls-12" d="M895,518v46H849V518h46m2-2H847v50h50V516Z"/><path class="cls-12" d="M895,458v46H849V458h46m2-2H847v50h50V456Z"/><rect class="cls-12" x="1205" y="157" width="110" height="110"/><rect class="cls-4" x="1086" y="157" width="110" height="110"/><rect class="cls-16" x="847" y="157" width="230" height="230"/><path class="cls-12" d="M1553,842V948H1327V842h226m2-2H1325V950h230V840Z"/><rect class="cls-13" x="847" y="217" width="50" height="50"/><rect class="cls-13" x="847" y="277" width="50" height="50"/><rect class="cls-7" x="1027" y="337" width="50" height="50"/><rect class="cls-8" x="967" y="337" width="50" height="50"/><rect x="907" y="277" width="50" height="50"/><rect class="cls-13" x="847" y="337" width="50" height="50"/><rect x="907" y="337" width="50" height="50"/><rect class="cls-14" x="1038" y="588" width="10" height="10"/><rect class="cls-14" x="1053" y="573" width="10" height="10"/><rect class="cls-14" x="1053" y="603" width="10" height="10"/><rect class="cls-14" x="1023" y="573" width="10" height="10"/><rect class="cls-14" x="1023" y="603" width="10" height="10"/><rect class="cls-17" x="978" y="528" width="10" height="10"/><rect class="cls-14" x="1023" y="588" width="10" height="10"/><rect class="cls-17" x="1008" y="573" width="10" height="10"/><rect x="1325" y="277" width="110" height="110"/><rect class="cls-17" x="993" y="588" width="10" height="10"/><rect class="cls-17" x="978" y="603" width="10" height="10"/><rect class="cls-17" x="993" y="573" width="10" height="10"/><rect class="cls-17" x="993" y="603" width="10" height="10"/><rect class="cls-17" x="978" y="558" width="10" height="10"/><rect class="cls-17" x="1008" y="588" width="10" height="10"/><rect class="cls-17" x="978" y="573" width="10" height="10"/><rect class="cls-17" x="978" y="588" width="10" height="10"/><rect class="cls-17" x="1008" y="603" width="10" height="10"/><rect class="cls-17" x="978" y="543" width="10" height="10"/><rect class="cls-13" x="608" y="157" width="230" height="230"/><rect class="cls-4" x="773" y="322" width="50" height="50"/><rect class="cls-17" x="1008" y="528" width="10" height="10"/><rect class="cls-17" x="993" y="543" width="10" height="10"/><rect class="cls-17" x="993" y="528" width="10" height="10"/><rect class="cls-17" x="993" y="558" width="10" height="10"/><rect class="cls-17" x="1008" y="543" width="10" height="10"/><rect class="cls-17" x="1008" y="558" width="10" height="10"/><rect class="cls-14" x="1053" y="543" width="10" height="10"/><rect class="cls-14" x="1038" y="528" width="10" height="10"/><rect class="cls-14" x="1038" y="558" width="10" height="10"/><rect class="cls-14" x="1038" y="543" width="10" height="10"/><rect class="cls-14" x="1053" y="528" width="10" height="10"/><rect class="cls-14" x="1053" y="558" width="10" height="10"/><rect class="cls-14" x="1023" y="528" width="10" height="10"/><rect class="cls-14" x="1023" y="558" width="10" height="10"/><rect class="cls-14" x="1023" y="543" width="10" height="10"/><path class="cls-12" d="M1074,518V624H968V518h106m2-2H966V626h110V516Z"/><rect class="cls-10" x="828" y="516" width="10" height="110"/><rect class="cls-11" x="768" y="516" width="10" height="110"/><rect class="cls-8" x="748" y="516" width="10" height="110"/><rect class="cls-7" x="728" y="516" width="10" height="110"/><rect class="cls-18" x="709" y="516" width="10" height="110"/><rect class="cls-4" x="689" y="516" width="10" height="110"/><rect class="cls-11" x="609" y="576" width="50" height="50"/><rect class="cls-4" x="549" y="576" width="50" height="50"/><rect class="cls-5" x="489" y="576" width="50" height="50"/><rect class="cls-18" x="549" y="516" width="50" height="50"/><rect class="cls-7" x="609" y="516" width="50" height="50"/><rect class="cls-13" x="669" y="516" width="10" height="110"/></g></svg>