<svg id="Theresa" xmlns="http://www.w3.org/2000/svg" viewBox="0 0 1920 1080"><defs><style>.cls-1{fill:#942192;}.cls-2{fill:#c33;}.cls-3{fill:#ff7283;}.cls-4{fill:#ff7b07;}.cls-5{fill:#ff0;}.cls-6{fill:#3c3;}.cls-7{fill:#1aa5ff;}.cls-8{fill:#1917ff;}.cls-9{fill:#7021dc;}.cls-10{fill:#fff;}.cls-11{fill:#e6e6e6;}.cls-12{fill:#fff5b9;}.cls-13{fill:#ffcfb9;}.cls-14{fill:#ffbaff;}.cls-15{fill:#51e0ff;}.cls-16{fill:#bfffef;}.cls-17{fill:#960;}</style></defs><rect class="cls-1" x="1103" y="879" width="110" height="110"/><rect class="cls-2" x="1493" y="793" width="50" height="50"/><rect class="cls-3" x="1344" y="853" width="50" height="50"/><rect class="cls-3" x="1373" y="913" width="50" height="50"/><rect class="cls-4" x="1433" y="793" width="50" height="50"/><rect class="cls-5" x="1373" y="793" width="50" height="50"/><rect class="cls-6" x="1463" y="853" width="50" height="50"/><rect class="cls-7" x="1523" y="853" width="50" height="50"/><rect class="cls-8" x="1493" y="913" width="50" height="50"/><rect class="cls-9" x="1433" y="913" width="50" height="50"/><rect class="cls-1" x="1403" y="853" width="50" height="50"/><rect class="cls-10" x="1223" y="879" width="110" height="110"/><rect x="1223" y="759" width="110" height="110"/><rect class="cls-11" x="384" y="196" width="230" height="230"/><rect class="cls-9" x="1463.5" y="495" width="50" height="50"/><rect class="cls-8" x="1523.5" y="495" width="50" height="50"/><rect class="cls-12" x="1550" y="628" width="10" height="10"/><rect class="cls-12" x="1535" y="613" width="10" height="10"/><rect class="cls-12" x="1535" y="643" width="10" height="10"/><rect class="cls-13" x="385" y="436" width="708" height="230"/><rect class="cls-14" x="502" y="496" width="50" height="50"/><rect class="cls-5" x="686" y="496" width="50" height="50"/><rect class="cls-15" x="742" y="616" width="50" height="50"/><rect class="cls-15" x="742" y="556" width="50" height="50"/><rect class="cls-9" x="863" y="616" width="50" height="50"/><rect class="cls-11" x="802" y="616" width="50" height="50"/><rect class="cls-8" x="923" y="616" width="50" height="50"/><rect class="cls-8" x="923" y="556" width="50" height="50"/><rect class="cls-9" x="863" y="556" width="50" height="50"/><rect class="cls-5" x="686" y="436" width="50" height="50"/><rect class="cls-5" x="686" y="556" width="50" height="50"/><path class="cls-10" d="M609,558v46H563V558h46m2-2H561v50h50V556Z"/><path class="cls-10" d="M609,618v46H563V618h46m2-2H561v50h50V616Z"/><rect class="cls-2" x="983" y="616" width="50" height="50"/><path class="cls-10" d="M609,498v46H563V498h46m2-2H561v50h50V496Z"/><rect class="cls-11" x="802" y="556" width="50" height="50"/><rect class="cls-11" x="802" y="496" width="50" height="50"/><rect class="cls-15" x="742" y="496" width="50" height="50"/><rect class="cls-14" x="502" y="616" width="50" height="50"/><rect class="cls-1" x="1043" y="616" width="50" height="50"/><rect class="cls-5" x="686" y="616" width="50" height="50"/><rect class="cls-14" x="383" y="555" width="110" height="110"/><path class="cls-10" d="M674,617v46H628V617h46m2-2H626v50h50V615Z"/><path class="cls-10" d="M674,557v46H628V557h46m2-2H626v50h50V555Z"/><path class="cls-10" d="M1092,318V424H986V318h106m2-2H984V426h110V316Z"/><rect class="cls-13" x="864" y="316" width="110" height="110"/><path class="cls-10" d="M1451.5,618v46h-46V618h46m2-2h-50v50h50V616Z"/><path class="cls-10" d="M1451.5,558v46h-46V558h46m2-2h-50v50h50V556Z"/><path class="cls-10" d="M1451.5,498v46h-46V498h46m2-2h-50v50h50V496Z"/><path class="cls-10" d="M1391.5,438v46h-46V438h46m2-2h-50v50h50V436Z"/><path class="cls-10" d="M1391.5,618v46h-46V618h46m2-2h-50v50h50V616Z"/><path class="cls-10" d="M1391.5,558v46h-46V558h46m2-2h-50v50h50V556Z"/><path class="cls-10" d="M1391.5,498v46h-46V498h46m2-2h-50v50h50V496Z"/><rect class="cls-10" x="984" y="196" width="110" height="110"/><rect class="cls-14" x="864" y="196" width="110" height="110"/><rect class="cls-16" x="1103" y="436" width="230" height="230"/><path class="cls-10" d="M1571,762V987H1346V762h225m2-2H1344V989h229V760Z"/><rect class="cls-11" x="1103" y="496" width="50" height="50"/><rect class="cls-11" x="1103" y="556" width="50" height="50"/><rect class="cls-5" x="1283" y="616" width="50" height="50"/><rect class="cls-6" x="1223" y="616" width="50" height="50"/><rect x="1163" y="556" width="50" height="50"/><rect class="cls-11" x="1103" y="616" width="50" height="50"/><rect x="1163" y="616" width="50" height="50"/><rect class="cls-12" x="1535" y="628" width="10" height="10"/><rect class="cls-12" x="1550" y="613" width="10" height="10"/><rect class="cls-12" x="1550" y="643" width="10" height="10"/><rect class="cls-12" x="1520" y="613" width="10" height="10"/><rect class="cls-12" x="1520" y="643" width="10" height="10"/><rect class="cls-17" x="1475" y="568" width="10" height="10"/><rect class="cls-12" x="1520" y="628" width="10" height="10"/><rect class="cls-17" x="1505" y="613" width="10" height="10"/><rect x="1103" y="316" width="110" height="110"/><rect class="cls-17" x="1490" y="628" width="10" height="10"/><rect class="cls-17" x="1475" y="643" width="10" height="10"/><rect class="cls-17" x="1490" y="613" width="10" height="10"/><rect class="cls-17" x="1490" y="643" width="10" height="10"/><rect class="cls-17" x="1475" y="598" width="10" height="10"/><rect class="cls-17" x="1505" y="628" width="10" height="10"/><rect class="cls-17" x="1475" y="613" width="10" height="10"/><rect class="cls-17" x="1475" y="628" width="10" height="10"/><rect class="cls-17" x="1505" y="643" width="10" height="10"/><rect class="cls-17" x="1475" y="583" width="10" height="10"/><rect class="cls-11" x="623" y="196" width="230" height="230"/><rect class="cls-14" x="788" y="361" width="50" height="50"/><rect class="cls-17" x="1505" y="568" width="10" height="10"/><rect class="cls-17" x="1490" y="583" width="10" height="10"/><rect class="cls-17" x="1490" y="568" width="10" height="10"/><rect class="cls-17" x="1490" y="598" width="10" height="10"/><rect class="cls-17" x="1505" y="583" width="10" height="10"/><rect class="cls-17" x="1505" y="598" width="10" height="10"/><rect class="cls-12" x="1550" y="583" width="10" height="10"/><rect class="cls-12" x="1535" y="568" width="10" height="10"/><rect class="cls-12" x="1535" y="598" width="10" height="10"/><rect class="cls-12" x="1535" y="583" width="10" height="10"/><rect class="cls-12" x="1550" y="568" width="10" height="10"/><rect class="cls-12" x="1550" y="598" width="10" height="10"/><rect class="cls-12" x="1520" y="568" width="10" height="10"/><rect class="cls-12" x="1520" y="598" width="10" height="10"/><rect class="cls-12" x="1520" y="583" width="10" height="10"/><path class="cls-10" d="M1571,558V664H1465V558h106m2-2H1463V666h110V556Z"/><rect class="cls-14" x="502" y="556" width="50" height="50"/></svg>