<svg xmlns="http://www.w3.org/2000/svg" viewBox="0 0 1371 902"><defs><style>.cls-1{fill:#d6b378;}.cls-2{fill:#6e757c;}.cls-3{fill:#942192;}.cls-4{fill:#ffbaff;}.cls-5{fill:#ff2424;}.cls-6{fill:#ff7b07;}.cls-7{fill:#ff0;}.cls-8{fill:#3c3;}.cls-9{fill:#1aa5ff;}.cls-10{fill:#1917ff;}.cls-11{fill:#7021dc;}.cls-12{fill:#fff;}.cls-13{fill:#b3b3b3;}.cls-14{fill:#fff5b9;}.cls-15{fill:#51e0ff;}.cls-16{fill:#960;}</style></defs><g id="Desk"><rect class="cls-1" x="503" y="592" width="837" height="310"/><rect class="cls-2" x="1" y="1" width="1369" height="604" rx="30.87"/><path class="cls-1" d="M1339.13,2A29.9,29.9,0,0,1,1369,31.87V574.13A29.9,29.9,0,0,1,1339.13,604H31.87A29.9,29.9,0,0,1,2,574.13V31.87A29.9,29.9,0,0,1,31.87,2H1339.13m0-2H31.87A31.87,31.87,0,0,0,0,31.87V574.13A31.87,31.87,0,0,0,31.87,606H1339.13A31.87,31.87,0,0,0,1371,574.13V31.87A31.87,31.87,0,0,0,1339.13,0Z"/></g><g id="Theresa"><rect class="cls-3" x="813" y="751" width="110" height="110"/><rect class="cls-4" x="1052" y="751" width="10" height="110"/><rect class="cls-5" x="1032" y="751" width="10" height="110"/><rect class="cls-5" x="1012" y="751" width="10" height="110"/><rect class="cls-6" x="992" y="751" width="10" height="110"/><rect class="cls-7" x="972" y="751" width="10" height="110"/><rect class="cls-8" x="952" y="751" width="10" height="110"/><rect class="cls-9" x="1131" y="752" width="10" height="110"/><rect class="cls-10" x="1111" y="751" width="10" height="110"/><rect class="cls-11" x="1091" y="751" width="10" height="110"/><rect class="cls-3" x="1072" y="751" width="10" height="110"/><rect class="cls-12" x="573" y="631" width="230" height="230"/><rect x="813" y="631" width="110" height="110"/><rect class="cls-13" x="95" y="68" width="230" height="230"/><rect class="cls-11" x="1111" y="248" width="50" height="50"/><rect class="cls-10" x="1171" y="248" width="50" height="50"/><rect class="cls-14" x="421" y="499" width="10" height="10"/><rect class="cls-14" x="406" y="484" width="10" height="10"/><rect class="cls-14" x="406" y="514" width="10" height="10"/><rect class="cls-13" x="95" y="307" width="230" height="230"/><rect class="cls-11" x="193" y="307" width="10" height="110"/><rect class="cls-10" x="213" y="307" width="10" height="110"/><rect class="cls-4" x="95" y="427" width="110" height="110"/><path d="M921,190V296H815V190H921m2-2H813V298H923V188Z"/><path class="cls-12" d="M1040,250v46H994V250h46m2-2H992v50h50V248Z"/><path class="cls-12" d="M1040,190v46H994V190h46m2-2H992v50h50V188Z"/><path class="cls-12" d="M1100,250v46h-46V250h46m2-2h-50v50h50V248Z"/><path class="cls-12" d="M1159,191v46h-46V191h46m2-2h-50v50h50V189Z"/><path class="cls-12" d="M980,250v46H934V250h46m2-2H932v50h50V248Z"/><path class="cls-12" d="M980,190v46H934V190h46m2-2H932v50h50V188Z"/><path class="cls-12" d="M1100,191v46h-46V191h46m2-2h-50v50h50V189Z"/><rect class="cls-12" x="932" y="68" width="110" height="110"/><rect class="cls-4" x="813" y="68" width="110" height="110"/><rect class="cls-15" x="573" y="68" width="230" height="230"/><path class="cls-12" d="M1159,753V859H933V753h226m2-2H931V861h230V751Z"/><rect class="cls-13" x="633" y="248" width="50" height="50"/><rect class="cls-13" x="573" y="188" width="50" height="50"/><rect class="cls-7" x="693" y="248" width="50" height="50"/><rect class="cls-8" x="693" y="188" width="50" height="50"/><rect class="cls-13" x="573" y="248" width="50" height="50"/><rect x="633" y="188" width="50" height="50"/><rect class="cls-14" x="406" y="499" width="10" height="10"/><rect class="cls-14" x="421" y="484" width="10" height="10"/><rect class="cls-14" x="421" y="514" width="10" height="10"/><rect class="cls-14" x="391" y="484" width="10" height="10"/><rect class="cls-14" x="391" y="514" width="10" height="10"/><rect class="cls-16" x="346" y="439" width="10" height="10"/><rect class="cls-14" x="391" y="499" width="10" height="10"/><rect class="cls-16" x="376" y="484" width="10" height="10"/><rect class="cls-16" x="361" y="499" width="10" height="10"/><rect class="cls-16" x="346" y="514" width="10" height="10"/><rect class="cls-16" x="361" y="484" width="10" height="10"/><rect class="cls-16" x="361" y="514" width="10" height="10"/><rect class="cls-16" x="346" y="469" width="10" height="10"/><rect class="cls-16" x="376" y="499" width="10" height="10"/><rect class="cls-16" x="346" y="484" width="10" height="10"/><rect class="cls-16" x="346" y="499" width="10" height="10"/><rect class="cls-16" x="376" y="514" width="10" height="10"/><rect class="cls-16" x="346" y="454" width="10" height="10"/><rect class="cls-13" x="334" y="68" width="230" height="230"/><rect class="cls-4" x="499" y="233" width="50" height="50"/><rect class="cls-16" x="376" y="439" width="10" height="10"/><rect class="cls-16" x="361" y="454" width="10" height="10"/><rect class="cls-16" x="361" y="439" width="10" height="10"/><rect class="cls-16" x="361" y="469" width="10" height="10"/><rect class="cls-16" x="376" y="454" width="10" height="10"/><rect class="cls-16" x="376" y="469" width="10" height="10"/><rect class="cls-14" x="421" y="454" width="10" height="10"/><rect class="cls-14" x="406" y="439" width="10" height="10"/><rect class="cls-14" x="406" y="469" width="10" height="10"/><rect class="cls-14" x="406" y="454" width="10" height="10"/><rect class="cls-14" x="421" y="439" width="10" height="10"/><rect class="cls-14" x="421" y="469" width="10" height="10"/><rect class="cls-14" x="391" y="439" width="10" height="10"/><rect class="cls-14" x="391" y="469" width="10" height="10"/><rect class="cls-14" x="391" y="454" width="10" height="10"/><path class="cls-12" d="M442,429V535H336V429H442m2-2H334V537H444V427Z"/><rect class="cls-11" x="173" y="307" width="10" height="110"/><rect class="cls-8" x="153" y="307" width="10" height="110"/><rect class="cls-7" x="133" y="307" width="10" height="110"/><rect class="cls-15" x="114" y="307" width="10" height="110"/><rect class="cls-4" x="94" y="307" width="10" height="110"/><rect x="753" y="188" width="10" height="110"/><rect class="cls-10" x="455" y="427" width="10" height="110"/><rect x="783" y="751" width="10" height="110"/></g></svg>