<svg xmlns="http://www.w3.org/2000/svg" viewBox="0 0 1371 902"><defs><style>.cls-1{fill:#d6b378;}.cls-2{fill:#6e757c;}.cls-3{fill:#fff;}.cls-4{fill:#1917ff;}.cls-5{fill:#fff5b9;}</style></defs><g id="Desk"><rect class="cls-1" x="503" y="592" width="837" height="310"/><rect class="cls-2" x="1" y="1" width="1369" height="604" rx="30.87"/><path class="cls-1" d="M1339.13,2A29.9,29.9,0,0,1,1369,31.87V574.13A29.9,29.9,0,0,1,1339.13,604H31.87A29.9,29.9,0,0,1,2,574.13V31.87A29.9,29.9,0,0,1,31.87,2H1339.13m0-2H31.87A31.87,31.87,0,0,0,0,31.87V574.13A31.87,31.87,0,0,0,31.87,606H1339.13A31.87,31.87,0,0,0,1371,574.13V31.87A31.87,31.87,0,0,0,1339.13,0Z"/></g><g id="David"><rect class="cls-3" x="573" y="631" width="230" height="230"/><rect x="812" y="68" width="110" height="110"/><rect x="573" y="68" width="230" height="230"/><rect class="cls-4" x="812" y="188" width="110" height="110"/><rect class="cls-3" x="812" y="188" width="10" height="110"/><rect class="cls-3" x="912" y="188" width="10" height="110"/><rect class="cls-3" x="852" y="188" width="10" height="110"/><rect class="cls-3" x="832" y="188" width="10" height="110"/><rect class="cls-3" x="872" y="188" width="10" height="110"/><rect class="cls-3" x="892" y="188" width="10" height="110"/><rect class="cls-3" x="334" y="68" width="230" height="230"/><rect class="cls-5" x="932" y="128" width="50" height="50"/><rect class="cls-3" x="95" y="68" width="230" height="230"/><rect class="cls-3" x="972" y="188" width="10" height="110"/><rect class="cls-3" x="952" y="188" width="10" height="110"/><rect class="cls-3" x="992" y="188" width="10" height="110"/><rect x="932" y="188" width="10" height="110"/></g></svg>