<svg xmlns="http://www.w3.org/2000/svg" viewBox="0 0 1371 902"><defs><style>.cls-1{fill:#d6b378;}.cls-2{fill:#6e757c;}.cls-3{fill:#ff2424;}.cls-4{fill:#fff5b9;}.cls-5{fill:#b3b3b3;}.cls-6{fill:#1917ff;}.cls-7{fill:#fff;}.cls-8{fill:#51e0ff;}.cls-9{fill:#ff7b07;}</style></defs><g id="Desk"><rect class="cls-1" x="503" y="592" width="837" height="310"/><rect class="cls-2" x="1" y="1" width="1369" height="604" rx="30.87"/><path class="cls-1" d="M1339.13,2A29.9,29.9,0,0,1,1369,31.87V574.13A29.9,29.9,0,0,1,1339.13,604H31.87A29.9,29.9,0,0,1,2,574.13V31.87A29.9,29.9,0,0,1,31.87,2H1339.13m0-2H31.87A31.87,31.87,0,0,0,0,31.87V574.13A31.87,31.87,0,0,0,31.87,606H1339.13A31.87,31.87,0,0,0,1371,574.13V31.87A31.87,31.87,0,0,0,1339.13,0Z"/></g><g id="Zak"><rect x="573" y="632" width="230" height="230"/><rect class="cls-3" x="334" y="68" width="230" height="230"/><rect x="95" y="68" width="230" height="230"/><rect class="cls-4" x="573" y="68" width="230" height="230"/><rect class="cls-5" x="95" y="307" width="469" height="230"/><rect x="444" y="178" width="110" height="110"/><path class="cls-6" d="M681,429V535H575V429H681m2-2H573V537H683V427Z"/><rect x="812" y="68" width="110" height="110"/><rect class="cls-7" x="932" y="68" width="110" height="110"/><rect x="812" y="188" width="110" height="110"/><rect class="cls-7" x="932" y="188" width="110" height="110"/><rect class="cls-7" x="334" y="427" width="10" height="110"/><rect class="cls-7" x="593" y="307" width="10" height="110"/><rect class="cls-7" x="374" y="427" width="10" height="110"/><rect class="cls-7" x="354" y="427" width="10" height="110"/><rect class="cls-7" x="394" y="427" width="10" height="110"/><rect class="cls-7" x="573" y="307" width="10" height="110"/><rect class="cls-7" x="633" y="307" width="10" height="110"/><rect class="cls-7" x="613" y="307" width="10" height="110"/><rect class="cls-7" x="692" y="427" width="50" height="50"/><rect class="cls-7" x="274" y="426" width="50" height="50"/><rect class="cls-7" x="215" y="485" width="50" height="50"/><rect class="cls-7" x="274" y="366" width="50" height="50"/><rect class="cls-7" x="215" y="425" width="50" height="50"/><rect x="334" y="367" width="50" height="50"/><rect class="cls-8" x="274" y="487" width="50" height="50"/><rect x="752" y="487" width="50" height="50"/><rect class="cls-9" x="692" y="487" width="50" height="50"/><rect class="cls-7" x="155" y="485" width="50" height="50"/><rect class="cls-7" x="95" y="485" width="50" height="50"/><rect class="cls-7" x="155" y="425" width="50" height="50"/><rect class="cls-7" x="95" y="425" width="50" height="50"/><rect class="cls-7" x="155" y="367" width="50" height="50"/><rect class="cls-7" x="95" y="367" width="50" height="50"/><rect class="cls-7" x="155" y="307" width="50" height="50"/><rect class="cls-7" x="95" y="307" width="50" height="50"/><rect class="cls-7" x="274" y="308" width="50" height="50"/><rect class="cls-7" x="215" y="367" width="50" height="50"/><rect class="cls-7" x="215" y="307" width="50" height="50"/></g></svg>