<svg xmlns="http://www.w3.org/2000/svg" viewBox="0 0 1371 902"><defs><style>.cls-1{fill:#d6b378;}.cls-2{fill:#6e757c;}.cls-3{fill:#ff2424;}.cls-4{fill:#fff;}.cls-5{fill:#1917ff;}.cls-6{fill:#fff5b9;}.cls-7{fill:#ff7283;}.cls-8{fill:#3c3;}.cls-9{fill:#ff0;}.cls-10{fill:#ff7b07;}</style></defs><g id="Desk"><rect class="cls-1" x="503" y="592" width="837" height="310"/><rect class="cls-2" x="1" y="1" width="1369" height="604" rx="30.87"/><path class="cls-1" d="M1339.13,2A29.9,29.9,0,0,1,1369,31.87V574.13A29.9,29.9,0,0,1,1339.13,604H31.87A29.9,29.9,0,0,1,2,574.13V31.87A29.9,29.9,0,0,1,31.87,2H1339.13m0-2H31.87A31.87,31.87,0,0,0,0,31.87V574.13A31.87,31.87,0,0,0,31.87,606H1339.13A31.87,31.87,0,0,0,1371,574.13V31.87A31.87,31.87,0,0,0,1339.13,0Z"/></g><g id="Ben"><rect x="95" y="68" width="230" height="230"/><rect x="334" y="68" width="230" height="230"/><rect class="cls-3" x="812" y="68" width="110" height="110"/><rect class="cls-3" x="812" y="188" width="110" height="110"/><rect x="932" y="68" width="110" height="110"/><rect class="cls-3" x="982" y="118" width="50" height="50"/><rect class="cls-4" x="573" y="68" width="230" height="230"/><rect class="cls-5" x="932" y="188" width="110" height="110"/><rect class="cls-6" x="1111" y="247" width="50" height="50"/><rect class="cls-6" x="1051" y="247" width="50" height="50"/><rect class="cls-6" x="1111" y="187" width="50" height="50"/><rect class="cls-6" x="1051" y="187" width="50" height="50"/><rect x="1191" y="187" width="10" height="110"/><rect class="cls-4" x="812" y="631" width="230" height="230"/><rect class="cls-4" x="573" y="631" width="230" height="230"/><rect x="1151" y="751" width="10" height="110"/><rect x="1131" y="751" width="10" height="110"/><path class="cls-4" d="M1279,693v46h-46V693h46m2-2h-50v50h50V691Z"/><rect x="1236" y="711" width="10" height="10"/><rect class="cls-7" x="1266" y="696" width="10" height="10"/><rect class="cls-5" x="1251" y="726" width="10" height="10"/><rect class="cls-5" x="1251" y="711" width="10" height="10"/><rect class="cls-8" x="1266" y="711" width="10" height="10"/><rect class="cls-3" x="1266" y="726" width="10" height="10"/><rect x="1236" y="726" width="10" height="10"/><rect x="1236" y="696" width="10" height="10"/><rect x="1251" y="696" width="10" height="10"/><rect class="cls-9" x="1231" y="811" width="50" height="50"/><rect class="cls-5" x="1231" y="751" width="50" height="50"/><path class="cls-4" d="M1219,753v46h-46V753h46m2-2h-50v50h50V751Z"/><rect class="cls-10" x="1171" y="811" width="50" height="50"/><rect x="1171" y="691" width="50" height="50"/><rect x="1171" y="631" width="50" height="50"/><rect x="1111" y="751" width="10" height="110"/><rect x="1091" y="751" width="10" height="110"/><rect x="1071" y="751" width="10" height="110"/><rect x="1051" y="751" width="10" height="110"/><path class="cls-4" d="M1159,753V859H1053V753h106m2-2H1051V861h110V751Z"/><rect x="1171" y="187" width="10" height="110"/><rect x="1111" y="631" width="10" height="110"/><rect x="1091" y="631" width="10" height="110"/><rect x="1071" y="631" width="10" height="110"/><rect x="1051" y="631" width="10" height="110"/><rect class="cls-5" x="1151" y="631" width="10" height="110"/><rect class="cls-5" x="1131" y="631" width="10" height="110"/></g></svg>