<svg xmlns="http://www.w3.org/2000/svg" viewBox="0 0 1371 902"><defs><style>.cls-1{fill:#d6b378;}.cls-2{fill:#6e757c;}.cls-3{fill:#fff;}.cls-4{fill:#51e0ff;}.cls-5{fill:#ffbaff;}.cls-6{fill:#1917ff;}.cls-7{fill:#b3b3b3;}.cls-8{fill:#fff5b9;}.cls-9{fill:#ff0;}.cls-10{fill:#7021dc;}.cls-11{fill:#ff7b07;}.cls-12{fill:#3c3;}</style></defs><g id="Desk"><rect class="cls-1" x="503" y="592" width="837" height="310"/><rect class="cls-2" x="1" y="1" width="1369" height="604" rx="30.87"/><path class="cls-1" d="M1339.13,2A29.9,29.9,0,0,1,1369,31.87V574.13A29.9,29.9,0,0,1,1339.13,604H31.87A29.9,29.9,0,0,1,2,574.13V31.87A29.9,29.9,0,0,1,31.87,2H1339.13m0-2H31.87A31.87,31.87,0,0,0,0,31.87V574.13A31.87,31.87,0,0,0,31.87,606H1339.13A31.87,31.87,0,0,0,1371,574.13V31.87A31.87,31.87,0,0,0,1339.13,0Z"/></g><g id="Andrea"><rect x="95" y="68" width="230" height="230"/><rect class="cls-3" x="573" y="632" width="230" height="230"/><rect class="cls-4" x="1051" y="751" width="110" height="110"/><rect class="cls-3" x="812" y="631" width="230" height="230"/><rect x="1171" y="752" width="110" height="110"/><path class="cls-3" d="M1200,753V861h-8V753h8m1-1h-10V862h10V752Z"/><rect class="cls-3" x="1171" y="752" width="10" height="110"/><rect class="cls-5" x="1251" y="752" width="10" height="110"/><rect class="cls-6" x="1231" y="752" width="10" height="110"/><rect class="cls-5" x="1271" y="752" width="10" height="110"/><rect class="cls-6" x="1211" y="752" width="10" height="110"/><path d="M1280,753V861H1172V753h108m1-1H1171V862h110V752Z"/><rect class="cls-7" x="334" y="68" width="230" height="230"/><rect class="cls-8" x="573" y="188" width="110" height="110"/><rect x="573" y="68" width="110" height="110"/><rect x="693" y="68" width="110" height="110"/><rect class="cls-8" x="693" y="188" width="110" height="110"/><rect class="cls-3" x="334" y="307" width="110" height="110"/><rect class="cls-3" x="334" y="427" width="110" height="110"/><path class="cls-3" d="M681,429V535H575V429H681m2-2H573V537H683V427Z"/><rect class="cls-3" x="872" y="487" width="50" height="50"/><rect class="cls-8" x="812" y="427" width="50" height="50"/><rect class="cls-3" x="812" y="487" width="50" height="50"/><rect class="cls-3" x="454" y="427" width="110" height="110"/><rect class="cls-5" x="453" y="308" width="110" height="110"/><rect class="cls-9" x="693" y="427" width="110" height="110"/><rect class="cls-6" x="693" y="307" width="110" height="110"/><path class="cls-6" d="M682,308V416H574V308H682m1-1H573V417H683V307Z"/><rect class="cls-4" x="95" y="307" width="230" height="230"/><rect x="115" y="427" width="10" height="110"/><rect class="cls-6" x="215" y="427" width="10" height="110"/><rect class="cls-10" x="155" y="427" width="10" height="110"/><rect class="cls-11" x="135" y="427" width="10" height="110"/><rect class="cls-12" x="175" y="427" width="10" height="110"/><rect class="cls-6" x="195" y="427" width="10" height="110"/><rect class="cls-9" x="255" y="427" width="10" height="110"/><path class="cls-3" d="M244,428V536h-8V428h8m1-1H235V537h10V427Z"/><rect x="95" y="427" width="10" height="110"/></g></svg>