<svg xmlns="http://www.w3.org/2000/svg" viewBox="0 0 1920 1080"><defs><style>.cls-1{fill:#d6b378;}.cls-2{fill:#6e757c;}.cls-3{fill:#ff2424;}.cls-4{fill:#fff;}.cls-5{fill:#1917ff;}.cls-6{fill:#fff5b9;}.cls-7{fill:#ff7283;}.cls-8{fill:#3c3;}.cls-9{fill:#ff0;}.cls-10{fill:#ff7b07;}</style></defs><g id="Desk"><rect class="cls-1" x="777" y="681" width="837" height="310"/><rect class="cls-2" x="275" y="90" width="1369" height="604" rx="30.87"/><path class="cls-1" d="M1613.13,91A29.9,29.9,0,0,1,1643,120.87V663.13A29.9,29.9,0,0,1,1613.13,693H305.87A29.9,29.9,0,0,1,276,663.13V120.87A29.9,29.9,0,0,1,305.87,91H1613.13m0-2H305.87A31.87,31.87,0,0,0,274,120.87V663.13A31.87,31.87,0,0,0,305.87,695H1613.13A31.87,31.87,0,0,0,1645,663.13V120.87A31.87,31.87,0,0,0,1613.13,89Z"/></g><g id="Ben"><rect x="369" y="157" width="230" height="230"/><rect x="608" y="157" width="230" height="230"/><rect class="cls-3" x="1086" y="157" width="110" height="110"/><rect class="cls-3" x="1086" y="277" width="110" height="110"/><rect x="1206" y="157" width="110" height="110"/><rect class="cls-3" x="1256" y="207" width="50" height="50"/><rect class="cls-4" x="847" y="157" width="230" height="230"/><rect class="cls-5" x="1206" y="277" width="110" height="110"/><rect class="cls-6" x="1385" y="336" width="50" height="50"/><rect class="cls-6" x="1325" y="336" width="50" height="50"/><rect class="cls-6" x="1385" y="276" width="50" height="50"/><rect class="cls-6" x="1325" y="276" width="50" height="50"/><rect x="1465" y="276" width="10" height="110"/><rect class="cls-4" x="1086" y="720" width="230" height="230"/><rect class="cls-4" x="847" y="720" width="230" height="230"/><rect x="1425" y="840" width="10" height="110"/><rect x="1405" y="840" width="10" height="110"/><path class="cls-4" d="M1553,782v46h-46V782h46m2-2h-50v50h50V780Z"/><rect x="1510" y="800" width="10" height="10"/><rect class="cls-7" x="1540" y="785" width="10" height="10"/><rect class="cls-5" x="1525" y="815" width="10" height="10"/><rect class="cls-5" x="1525" y="800" width="10" height="10"/><rect class="cls-8" x="1540" y="800" width="10" height="10"/><rect class="cls-3" x="1540" y="815" width="10" height="10"/><rect x="1510" y="815" width="10" height="10"/><rect x="1510" y="785" width="10" height="10"/><rect x="1525" y="785" width="10" height="10"/><rect class="cls-9" x="1505" y="900" width="50" height="50"/><rect class="cls-5" x="1505" y="840" width="50" height="50"/><path class="cls-4" d="M1493,842v46h-46V842h46m2-2h-50v50h50V840Z"/><rect class="cls-10" x="1445" y="900" width="50" height="50"/><rect x="1445" y="780" width="50" height="50"/><rect x="1445" y="720" width="50" height="50"/><rect x="1385" y="840" width="10" height="110"/><rect x="1365" y="840" width="10" height="110"/><rect x="1345" y="840" width="10" height="110"/><rect x="1325" y="840" width="10" height="110"/><path class="cls-4" d="M1433,842V948H1327V842h106m2-2H1325V950h110V840Z"/><rect x="1445" y="276" width="10" height="110"/><rect x="1385" y="720" width="10" height="110"/><rect x="1365" y="720" width="10" height="110"/><rect x="1345" y="720" width="10" height="110"/><rect x="1325" y="720" width="10" height="110"/><rect class="cls-5" x="1425" y="720" width="10" height="110"/><rect class="cls-5" x="1405" y="720" width="10" height="110"/></g></svg>