<svg xmlns="http://www.w3.org/2000/svg" viewBox="0 0 1371 902"><defs><style>.cls-1{fill:#d6b378;}.cls-2{fill:#6e757c;}.cls-3{fill:#942192;}.cls-4{fill:#ffbaff;}.cls-5{fill:#ff2424;}.cls-6{fill:#ff7b07;}.cls-7{fill:#ff0;}.cls-8{fill:#3c3;}.cls-9{fill:#1aa5ff;}.cls-10{fill:#1917ff;}.cls-11{fill:#7021dc;}.cls-12{fill:#fff;}.cls-13{fill:#b3b3b3;}.cls-14{fill:#fff5b9;}.cls-15{fill:#51e0ff;}.cls-16{fill:#960;}.cls-17{fill:#e6e6e6;}</style></defs><g id="Desk"><rect class="cls-1" x="503" y="592" width="837" height="310"/><rect class="cls-2" x="1" y="1" width="1369" height="604" rx="30.87"/><path class="cls-1" d="M1339.13,2A29.9,29.9,0,0,1,1369,31.87V574.13A29.9,29.9,0,0,1,1339.13,604H31.87A29.9,29.9,0,0,1,2,574.13V31.87A29.9,29.9,0,0,1,31.87,2H1339.13m0-2H31.87A31.87,31.87,0,0,0,0,31.87V574.13A31.87,31.87,0,0,0,31.87,606H1339.13A31.87,31.87,0,0,0,1371,574.13V31.87A31.87,31.87,0,0,0,1339.13,0Z"/></g><g id="Theresa"><rect class="cls-3" x="573" y="751" width="110" height="110"/><rect class="cls-4" x="933" y="751" width="10" height="110"/><rect class="cls-5" x="913" y="751" width="10" height="110"/><rect class="cls-5" x="893" y="751" width="10" height="110"/><rect class="cls-6" x="873" y="751" width="10" height="110"/><rect class="cls-7" x="853" y="751" width="10" height="110"/><rect class="cls-8" x="833" y="751" width="10" height="110"/><rect class="cls-9" x="1012" y="752" width="10" height="110"/><rect class="cls-10" x="992" y="751" width="10" height="110"/><rect class="cls-11" x="972" y="751" width="10" height="110"/><rect class="cls-3" x="953" y="751" width="10" height="110"/><rect class="cls-12" x="693" y="751" width="110" height="110"/><rect x="573" y="631" width="110" height="110"/><rect class="cls-13" x="95" y="68" width="230" height="230"/><rect class="cls-11" x="1171" y="248" width="50" height="50"/><rect class="cls-10" x="1231" y="248" width="50" height="50"/><rect class="cls-14" x="421" y="499" width="10" height="10"/><rect class="cls-14" x="406" y="484" width="10" height="10"/><rect class="cls-14" x="406" y="514" width="10" height="10"/><rect class="cls-13" x="95" y="307" width="230" height="230"/><rect class="cls-11" x="214" y="307" width="10" height="110"/><rect class="cls-11" x="234" y="307" width="10" height="110"/><rect class="cls-4" x="95" y="427" width="110" height="110"/><path d="M1040,190V296H934V190h106m2-2H932V298h110V188Z"/><rect class="cls-4" x="813" y="188" width="110" height="110"/><path class="cls-12" d="M1159,131v46h-46V131h46m2-2h-50v50h50V129Z"/><path class="cls-12" d="M1159,71v46h-46V71h46m2-2h-50v50h50V69Z"/><path class="cls-12" d="M1219,190v46h-46V190h46m2-2h-50v50h50V188Z"/><path class="cls-12" d="M1219,71v46h-46V71h46m2-2h-50v50h50V69Z"/><path class="cls-12" d="M1099,131v46h-46V131h46m2-2h-50v50h50V129Z"/><path class="cls-12" d="M1099,71v46h-46V71h46m2-2h-50v50h50V69Z"/><path class="cls-12" d="M1219,130v46h-46V130h46m2-2h-50v50h50V128Z"/><rect class="cls-12" x="932" y="68" width="110" height="110"/><rect class="cls-4" x="813" y="68" width="110" height="110"/><rect class="cls-15" x="573" y="68" width="230" height="230"/><path class="cls-12" d="M1040,753V859H814V753h226m2-2H812V861h230V751Z"/><rect class="cls-13" x="633" y="248" width="50" height="50"/><rect class="cls-13" x="573" y="188" width="50" height="50"/><rect class="cls-7" x="693" y="248" width="50" height="50"/><rect class="cls-8" x="693" y="188" width="50" height="50"/><rect class="cls-13" x="573" y="248" width="50" height="50"/><rect x="633" y="188" width="50" height="50"/><rect class="cls-14" x="406" y="499" width="10" height="10"/><rect class="cls-14" x="421" y="484" width="10" height="10"/><rect class="cls-14" x="421" y="514" width="10" height="10"/><rect class="cls-14" x="391" y="484" width="10" height="10"/><rect class="cls-14" x="391" y="514" width="10" height="10"/><rect class="cls-16" x="346" y="439" width="10" height="10"/><rect class="cls-14" x="391" y="499" width="10" height="10"/><rect class="cls-16" x="376" y="484" width="10" height="10"/><rect x="1051" y="188" width="110" height="110"/><rect class="cls-16" x="361" y="499" width="10" height="10"/><rect class="cls-16" x="346" y="514" width="10" height="10"/><rect class="cls-16" x="361" y="484" width="10" height="10"/><rect class="cls-16" x="361" y="514" width="10" height="10"/><rect class="cls-16" x="346" y="469" width="10" height="10"/><rect class="cls-16" x="376" y="499" width="10" height="10"/><rect class="cls-16" x="346" y="484" width="10" height="10"/><rect class="cls-16" x="346" y="499" width="10" height="10"/><rect class="cls-16" x="376" y="514" width="10" height="10"/><rect class="cls-16" x="346" y="454" width="10" height="10"/><rect class="cls-13" x="334" y="68" width="230" height="230"/><rect class="cls-4" x="499" y="233" width="50" height="50"/><rect class="cls-16" x="376" y="439" width="10" height="10"/><rect class="cls-16" x="361" y="454" width="10" height="10"/><rect class="cls-16" x="361" y="439" width="10" height="10"/><rect class="cls-16" x="361" y="469" width="10" height="10"/><rect class="cls-16" x="376" y="454" width="10" height="10"/><rect class="cls-16" x="376" y="469" width="10" height="10"/><rect class="cls-14" x="421" y="454" width="10" height="10"/><rect class="cls-14" x="406" y="439" width="10" height="10"/><rect class="cls-14" x="406" y="469" width="10" height="10"/><rect class="cls-14" x="406" y="454" width="10" height="10"/><rect class="cls-14" x="421" y="439" width="10" height="10"/><rect class="cls-14" x="421" y="469" width="10" height="10"/><rect class="cls-14" x="391" y="439" width="10" height="10"/><rect class="cls-14" x="391" y="469" width="10" height="10"/><rect class="cls-14" x="391" y="454" width="10" height="10"/><path class="cls-12" d="M442,429V535H336V429H442m2-2H334V537H444V427Z"/><rect class="cls-10" x="254" y="307" width="10" height="110"/><rect class="cls-11" x="194" y="307" width="10" height="110"/><rect class="cls-8" x="174" y="307" width="10" height="110"/><rect class="cls-7" x="154" y="307" width="10" height="110"/><rect class="cls-15" x="135" y="307" width="10" height="110"/><rect class="cls-4" x="115" y="307" width="10" height="110"/><rect class="cls-11" x="215" y="426" width="50" height="50"/><rect class="cls-4" x="275" y="487" width="50" height="50"/><rect class="cls-5" x="215" y="487" width="50" height="50"/><rect class="cls-15" x="275" y="427" width="50" height="50"/><rect class="cls-7" x="275" y="368" width="50" height="50"/><rect class="cls-17" x="95" y="307" width="10" height="110"/><rect x="753" y="188" width="10" height="110"/></g></svg>