<svg xmlns="http://www.w3.org/2000/svg" viewBox="0 0 1920 1080"><defs><style>.cls-1{fill:#d6b378;}.cls-2{fill:#6e757c;}.cls-3{fill:#b3b3b3;}.cls-4{fill:#ff7b07;}.cls-5{fill:#fff;}.cls-6{fill:#3c3;}.cls-7{fill:#fff5b9;}.cls-8{fill:#ff2424;}.cls-9{fill:#ff0;}.cls-10{fill:#960;}</style></defs><g id="Desk"><rect class="cls-1" x="777" y="681" width="837" height="310"/><rect class="cls-2" x="275" y="90" width="1369" height="604" rx="30.87"/><path class="cls-1" d="M1613.13,91A29.9,29.9,0,0,1,1643,120.87V663.13A29.9,29.9,0,0,1,1613.13,693H305.87A29.9,29.9,0,0,1,276,663.13V120.87A29.9,29.9,0,0,1,305.87,91H1613.13m0-2H305.87A31.87,31.87,0,0,0,274,120.87V663.13A31.87,31.87,0,0,0,305.87,695H1613.13A31.87,31.87,0,0,0,1645,663.13V120.87A31.87,31.87,0,0,0,1613.13,89Z"/></g><g id="Tori"><rect class="cls-3" x="369" y="396" width="230" height="230"/><rect x="907" y="900" width="50" height="50"/><rect x="847" y="900" width="50" height="50"/><rect x="907" y="840" width="50" height="50"/><rect x="847" y="840" width="50" height="50"/><rect class="cls-4" x="967" y="900" width="50" height="50"/><rect class="cls-5" x="1206" y="158" width="110" height="110"/><path class="cls-5" d="M1433,278V384H1327V278h106m2-2H1325V386h110V276Z"/><rect class="cls-6" x="1414" y="276" width="10" height="110"/><rect class="cls-7" x="1206" y="276" width="110" height="110"/><rect class="cls-3" x="1086" y="277" width="110" height="110"/><rect x="369" y="157" width="230" height="230"/><path class="cls-5" d="M1433,159V265H1327V159h106m2-2H1325V267h110V157Z"/><rect x="1086" y="158" width="110" height="110"/><rect class="cls-8" x="608" y="157" width="230" height="230"/><rect class="cls-8" x="847" y="157" width="230" height="230"/><rect class="cls-9" x="1445" y="277" width="110" height="110"/><rect class="cls-8" x="369" y="396" width="110" height="110"/><rect class="cls-10" x="369" y="516" width="110" height="110"/><rect class="cls-6" x="608" y="516" width="10" height="110"/><rect class="cls-3" x="628" y="576" width="50" height="50"/><rect class="cls-7" x="490" y="516" width="10" height="110"/><rect class="cls-7" x="530" y="516" width="10" height="110"/><rect class="cls-7" x="510" y="516" width="10" height="110"/></g></svg>