<svg xmlns="http://www.w3.org/2000/svg" viewBox="0 0 1371 902"><defs><style>.cls-1{fill:#d6b378;}.cls-2{fill:#6e757c;}.cls-3{fill:#fff;}.cls-4{fill:#b3b3b3;}.cls-5{fill:#7021dc;}.cls-6{fill:#51e0ff;}.cls-7{fill:#960;}.cls-8{fill:#fff5b9;}.cls-9{fill:#ff0;}.cls-10{fill:#3c3;}.cls-11{fill:#ffbaff;}.cls-12{fill:#ff7b07;}.cls-13{fill:#1917ff;}</style></defs><g id="Desk"><rect class="cls-1" x="503" y="592" width="837" height="310"/><rect class="cls-2" x="1" y="1" width="1369" height="604" rx="30.87"/><path class="cls-1" d="M1339.13,2A29.9,29.9,0,0,1,1369,31.87V574.13A29.9,29.9,0,0,1,1339.13,604H31.87A29.9,29.9,0,0,1,2,574.13V31.87A29.9,29.9,0,0,1,31.87,2H1339.13m0-2H31.87A31.87,31.87,0,0,0,0,31.87V574.13A31.87,31.87,0,0,0,31.87,606H1339.13A31.87,31.87,0,0,0,1371,574.13V31.87A31.87,31.87,0,0,0,1339.13,0Z"/></g><g id="Elizabeth"><rect class="cls-3" x="812" y="68" width="230" height="230"/><rect class="cls-3" x="573" y="68" width="230" height="230"/><rect class="cls-4" x="334" y="68" width="230" height="230"/><rect class="cls-5" x="1051" y="67" width="230" height="230"/><rect class="cls-6" x="573" y="631" width="230" height="230"/><rect class="cls-3" x="812" y="631" width="230" height="230"/><rect class="cls-4" x="95" y="68" width="230" height="230"/><rect class="cls-3" x="1051" y="631" width="230" height="230"/><rect class="cls-7" x="922" y="741" width="110" height="110"/><rect class="cls-8" x="573" y="427" width="110" height="110"/><rect class="cls-3" x="95" y="307" width="230" height="230"/><rect class="cls-5" x="95" y="307" width="110" height="110"/><rect class="cls-3" x="454" y="307" width="110" height="110"/><rect class="cls-9" x="454" y="427" width="110" height="110"/><rect class="cls-6" x="334" y="427" width="110" height="110"/><rect class="cls-10" x="334" y="307" width="110" height="110"/><rect class="cls-6" x="613" y="307" width="10" height="110"/><rect class="cls-11" x="593" y="307" width="10" height="110"/><rect class="cls-12" x="135" y="427" width="10" height="110"/><rect x="155" y="427" width="10" height="110"/><rect class="cls-9" x="175" y="427" width="10" height="110"/><rect class="cls-9" x="195" y="427" width="10" height="110"/><rect x="235" y="427" width="10" height="110"/><rect x="215" y="427" width="10" height="110"/><rect x="255" y="427" width="10" height="110"/><rect class="cls-13" x="275" y="427" width="10" height="110"/><rect class="cls-13" x="295" y="427" width="10" height="110"/><rect class="cls-4" x="573" y="307" width="10" height="110"/></g></svg>