<svg xmlns="http://www.w3.org/2000/svg" viewBox="0 0 1920 1080"><defs><style>.cls-1{fill:#d6b378;}.cls-2{fill:#6e757c;}.cls-3{fill:#fff;}.cls-4{fill:#b3b3b3;}.cls-5{fill:#7021dc;}.cls-6{fill:#51e0ff;}.cls-7{fill:#960;}.cls-8{fill:#fff5b9;}.cls-9{fill:#ff0;}.cls-10{fill:#3c3;}.cls-11{fill:#ffbaff;}.cls-12{fill:#ff7b07;}.cls-13{fill:#1917ff;}</style></defs><g id="Desk"><rect class="cls-1" x="777" y="681" width="837" height="310"/><rect class="cls-2" x="275" y="90" width="1369" height="604" rx="30.87"/><path class="cls-1" d="M1613.13,91A29.9,29.9,0,0,1,1643,120.87V663.13A29.9,29.9,0,0,1,1613.13,693H305.87A29.9,29.9,0,0,1,276,663.13V120.87A29.9,29.9,0,0,1,305.87,91H1613.13m0-2H305.87A31.87,31.87,0,0,0,274,120.87V663.13A31.87,31.87,0,0,0,305.87,695H1613.13A31.87,31.87,0,0,0,1645,663.13V120.87A31.87,31.87,0,0,0,1613.13,89Z"/></g><g id="Elizabeth"><rect class="cls-3" x="1086" y="157" width="230" height="230"/><rect class="cls-3" x="847" y="157" width="230" height="230"/><rect class="cls-4" x="608" y="157" width="230" height="230"/><rect class="cls-5" x="1325" y="156" width="230" height="230"/><rect class="cls-6" x="847" y="720" width="230" height="230"/><rect class="cls-3" x="1086" y="720" width="230" height="230"/><rect class="cls-4" x="369" y="157" width="230" height="230"/><rect class="cls-3" x="1325" y="720" width="230" height="230"/><rect class="cls-7" x="1196" y="830" width="110" height="110"/><rect class="cls-8" x="847" y="516" width="110" height="110"/><rect class="cls-3" x="369" y="396" width="230" height="230"/><rect class="cls-5" x="369" y="396" width="110" height="110"/><rect class="cls-3" x="728" y="396" width="110" height="110"/><rect class="cls-9" x="728" y="516" width="110" height="110"/><rect class="cls-6" x="608" y="516" width="110" height="110"/><rect class="cls-10" x="608" y="396" width="110" height="110"/><rect class="cls-6" x="887" y="396" width="10" height="110"/><rect class="cls-11" x="867" y="396" width="10" height="110"/><rect class="cls-12" x="409" y="516" width="10" height="110"/><rect x="429" y="516" width="10" height="110"/><rect class="cls-9" x="449" y="516" width="10" height="110"/><rect class="cls-9" x="469" y="516" width="10" height="110"/><rect x="509" y="516" width="10" height="110"/><rect x="489" y="516" width="10" height="110"/><rect x="529" y="516" width="10" height="110"/><rect class="cls-13" x="549" y="516" width="10" height="110"/><rect class="cls-13" x="569" y="516" width="10" height="110"/><rect class="cls-4" x="847" y="396" width="10" height="110"/></g></svg>