<svg xmlns="http://www.w3.org/2000/svg" viewBox="0 0 1920 1080"><defs><style>.cls-1{fill:#d6b378;}.cls-2{fill:#6e757c;}.cls-3{fill:#942192;}.cls-4{fill:#ffbaff;}.cls-5{fill:#ff2424;}.cls-6{fill:#ff7b07;}.cls-7{fill:#ff0;}.cls-8{fill:#3c3;}.cls-9{fill:#1aa5ff;}.cls-10{fill:#1917ff;}.cls-11{fill:#7021dc;}.cls-12{fill:#fff;}.cls-13{fill:#b3b3b3;}.cls-14{fill:#fff5b9;}.cls-15{fill:#51e0ff;}.cls-16{fill:#960;}.cls-17{fill:#e6e6e6;}</style></defs><g id="Desk"><rect class="cls-1" x="777" y="681" width="837" height="310"/><rect class="cls-2" x="275" y="90" width="1369" height="604" rx="30.87"/><path class="cls-1" d="M1613.13,91A29.9,29.9,0,0,1,1643,120.87V663.13A29.9,29.9,0,0,1,1613.13,693H305.87A29.9,29.9,0,0,1,276,663.13V120.87A29.9,29.9,0,0,1,305.87,91H1613.13m0-2H305.87A31.87,31.87,0,0,0,274,120.87V663.13A31.87,31.87,0,0,0,305.87,695H1613.13A31.87,31.87,0,0,0,1645,663.13V120.87A31.87,31.87,0,0,0,1613.13,89Z"/></g><g id="Theresa"><rect class="cls-3" x="847" y="840" width="110" height="110"/><rect class="cls-4" x="1207" y="840" width="10" height="110"/><rect class="cls-5" x="1187" y="840" width="10" height="110"/><rect class="cls-5" x="1167" y="840" width="10" height="110"/><rect class="cls-6" x="1147" y="840" width="10" height="110"/><rect class="cls-7" x="1127" y="840" width="10" height="110"/><rect class="cls-8" x="1107" y="840" width="10" height="110"/><rect class="cls-9" x="1286" y="841" width="10" height="110"/><rect class="cls-10" x="1266" y="840" width="10" height="110"/><rect class="cls-11" x="1246" y="840" width="10" height="110"/><rect class="cls-3" x="1227" y="840" width="10" height="110"/><rect class="cls-12" x="967" y="840" width="110" height="110"/><rect x="847" y="720" width="110" height="110"/><rect class="cls-13" x="369" y="157" width="230" height="230"/><rect class="cls-11" x="1445" y="337" width="50" height="50"/><rect class="cls-10" x="1505" y="337" width="50" height="50"/><rect class="cls-14" x="695" y="588" width="10" height="10"/><rect class="cls-14" x="680" y="573" width="10" height="10"/><rect class="cls-14" x="680" y="603" width="10" height="10"/><rect class="cls-13" x="369" y="396" width="230" height="230"/><rect class="cls-11" x="488" y="396" width="10" height="110"/><rect class="cls-11" x="508" y="396" width="10" height="110"/><rect class="cls-4" x="369" y="516" width="110" height="110"/><path d="M1314,279V385H1208V279h106m2-2H1206V387h110V277Z"/><rect class="cls-4" x="1087" y="277" width="110" height="110"/><path class="cls-12" d="M1433,220v46h-46V220h46m2-2h-50v50h50V218Z"/><path class="cls-12" d="M1433,160v46h-46V160h46m2-2h-50v50h50V158Z"/><path class="cls-12" d="M1493,279v46h-46V279h46m2-2h-50v50h50V277Z"/><path class="cls-12" d="M1493,160v46h-46V160h46m2-2h-50v50h50V158Z"/><path class="cls-12" d="M1373,220v46h-46V220h46m2-2h-50v50h50V218Z"/><path class="cls-12" d="M1373,160v46h-46V160h46m2-2h-50v50h50V158Z"/><path class="cls-12" d="M1493,219v46h-46V219h46m2-2h-50v50h50V217Z"/><rect class="cls-12" x="1206" y="157" width="110" height="110"/><rect class="cls-4" x="1087" y="157" width="110" height="110"/><rect class="cls-15" x="847" y="157" width="230" height="230"/><path class="cls-12" d="M1314,842V948H1088V842h226m2-2H1086V950h230V840Z"/><rect class="cls-13" x="847" y="217" width="50" height="50"/><rect class="cls-13" x="847" y="277" width="50" height="50"/><rect class="cls-7" x="1027" y="337" width="50" height="50"/><rect class="cls-8" x="967" y="337" width="50" height="50"/><rect x="907" y="277" width="50" height="50"/><rect class="cls-13" x="847" y="337" width="50" height="50"/><rect x="907" y="337" width="50" height="50"/><rect class="cls-14" x="680" y="588" width="10" height="10"/><rect class="cls-14" x="695" y="573" width="10" height="10"/><rect class="cls-14" x="695" y="603" width="10" height="10"/><rect class="cls-14" x="665" y="573" width="10" height="10"/><rect class="cls-14" x="665" y="603" width="10" height="10"/><rect class="cls-16" x="620" y="528" width="10" height="10"/><rect class="cls-14" x="665" y="588" width="10" height="10"/><rect class="cls-16" x="650" y="573" width="10" height="10"/><rect x="1325" y="277" width="110" height="110"/><rect class="cls-16" x="635" y="588" width="10" height="10"/><rect class="cls-16" x="620" y="603" width="10" height="10"/><rect class="cls-16" x="635" y="573" width="10" height="10"/><rect class="cls-16" x="635" y="603" width="10" height="10"/><rect class="cls-16" x="620" y="558" width="10" height="10"/><rect class="cls-16" x="650" y="588" width="10" height="10"/><rect class="cls-16" x="620" y="573" width="10" height="10"/><rect class="cls-16" x="620" y="588" width="10" height="10"/><rect class="cls-16" x="650" y="603" width="10" height="10"/><rect class="cls-16" x="620" y="543" width="10" height="10"/><rect class="cls-13" x="608" y="157" width="230" height="230"/><rect class="cls-4" x="773" y="322" width="50" height="50"/><rect class="cls-16" x="650" y="528" width="10" height="10"/><rect class="cls-16" x="635" y="543" width="10" height="10"/><rect class="cls-16" x="635" y="528" width="10" height="10"/><rect class="cls-16" x="635" y="558" width="10" height="10"/><rect class="cls-16" x="650" y="543" width="10" height="10"/><rect class="cls-16" x="650" y="558" width="10" height="10"/><rect class="cls-14" x="695" y="543" width="10" height="10"/><rect class="cls-14" x="680" y="528" width="10" height="10"/><rect class="cls-14" x="680" y="558" width="10" height="10"/><rect class="cls-14" x="680" y="543" width="10" height="10"/><rect class="cls-14" x="695" y="528" width="10" height="10"/><rect class="cls-14" x="695" y="558" width="10" height="10"/><rect class="cls-14" x="665" y="528" width="10" height="10"/><rect class="cls-14" x="665" y="558" width="10" height="10"/><rect class="cls-14" x="665" y="543" width="10" height="10"/><path class="cls-12" d="M716,518V624H610V518H716m2-2H608V626H718V516Z"/><rect class="cls-10" x="528" y="396" width="10" height="110"/><rect class="cls-11" x="468" y="396" width="10" height="110"/><rect class="cls-8" x="448" y="396" width="10" height="110"/><rect class="cls-7" x="428" y="396" width="10" height="110"/><rect class="cls-15" x="409" y="396" width="10" height="110"/><rect class="cls-4" x="389" y="396" width="10" height="110"/><rect class="cls-11" x="489" y="515" width="50" height="50"/><rect class="cls-4" x="549" y="576" width="50" height="50"/><rect class="cls-5" x="489" y="576" width="50" height="50"/><rect class="cls-15" x="549" y="516" width="50" height="50"/><rect class="cls-7" x="549" y="457" width="50" height="50"/><rect class="cls-17" x="369" y="396" width="10" height="110"/></g></svg>