<svg xmlns="http://www.w3.org/2000/svg" viewBox="0 0 1920 1080"><defs><style>.cls-1{fill:#d6b378;}.cls-2{fill:#6e757c;}.cls-3{fill:#fff;}.cls-4{fill:#1917ff;}.cls-5{fill:#fff5b9;}</style></defs><g id="Desk"><rect class="cls-1" x="777" y="681" width="837" height="310"/><rect class="cls-2" x="275" y="90" width="1369" height="604" rx="30.87"/><path class="cls-1" d="M1613.13,91A29.9,29.9,0,0,1,1643,120.87V663.13A29.9,29.9,0,0,1,1613.13,693H305.87A29.9,29.9,0,0,1,276,663.13V120.87A29.9,29.9,0,0,1,305.87,91H1613.13m0-2H305.87A31.87,31.87,0,0,0,274,120.87V663.13A31.87,31.87,0,0,0,305.87,695H1613.13A31.87,31.87,0,0,0,1645,663.13V120.87A31.87,31.87,0,0,0,1613.13,89Z"/></g><g id="David"><rect class="cls-3" x="847" y="720" width="230" height="230"/><rect x="1086" y="157" width="110" height="110"/><rect x="847" y="157" width="230" height="230"/><rect class="cls-4" x="1086" y="277" width="110" height="110"/><rect class="cls-3" x="1086" y="277" width="10" height="110"/><rect class="cls-3" x="1186" y="277" width="10" height="110"/><rect class="cls-3" x="1126" y="277" width="10" height="110"/><rect class="cls-3" x="1106" y="277" width="10" height="110"/><rect class="cls-3" x="1146" y="277" width="10" height="110"/><rect class="cls-3" x="1166" y="277" width="10" height="110"/><rect class="cls-3" x="608" y="157" width="230" height="230"/><rect class="cls-5" x="1206" y="217" width="50" height="50"/><rect class="cls-3" x="369" y="157" width="230" height="230"/><rect class="cls-3" x="1246" y="277" width="10" height="110"/><rect class="cls-3" x="1226" y="277" width="10" height="110"/><rect class="cls-3" x="1266" y="277" width="10" height="110"/><rect x="1206" y="277" width="10" height="110"/></g></svg>