<svg xmlns="http://www.w3.org/2000/svg" viewBox="0 0 1371 902"><defs><style>.cls-1{fill:#d6b378;}.cls-2{fill:#6e757c;}.cls-3{fill:#b3b3b3;}.cls-4{fill:#ff7b07;}.cls-11,.cls-5{fill:#fff;}.cls-6{fill:#3c3;}.cls-7{fill:#fff5b9;}.cls-8{fill:#ff2424;}.cls-9{fill:#ff0;}.cls-10{fill:#960;}.cls-11{opacity:0.8;}.cls-12,.cls-13{font-size:100px;}.cls-12{font-family:CourierNewPS-BoldMT, Courier New;font-weight:700;}.cls-13{font-family:CourierNewPSMT, Courier New;}</style></defs><g id="Layer_1" data-name="Layer 1"><rect class="cls-1" x="503" y="592" width="837" height="310"/><rect class="cls-2" x="1" y="1" width="1369" height="604" rx="30.87"/><path class="cls-1" d="M1339.13,2A29.9,29.9,0,0,1,1369,31.87V574.13A29.9,29.9,0,0,1,1339.13,604H31.87A29.9,29.9,0,0,1,2,574.13V31.87A29.9,29.9,0,0,1,31.87,2H1339.13m0-2H31.87A31.87,31.87,0,0,0,0,31.87V574.13A31.87,31.87,0,0,0,31.87,606H1339.13A31.87,31.87,0,0,0,1371,574.13V31.87A31.87,31.87,0,0,0,1339.13,0Z"/><rect class="cls-3" x="95" y="307" width="230" height="230"/><rect x="633" y="811" width="50" height="50"/><rect x="573" y="811" width="50" height="50"/><rect x="633" y="751" width="50" height="50"/><rect x="573" y="751" width="50" height="50"/><rect class="cls-4" x="693" y="811" width="50" height="50"/><rect class="cls-5" x="932" y="69" width="110" height="110"/><path class="cls-5" d="M1159,189V295H1053V189h106m2-2H1051V297h110V187Z"/><rect class="cls-6" x="1140" y="187" width="10" height="110"/><rect class="cls-7" x="932" y="187" width="110" height="110"/><rect class="cls-3" x="812" y="188" width="110" height="110"/><rect x="95" y="68" width="230" height="230"/><path class="cls-5" d="M1159,70V176H1053V70h106m2-2H1051V178h110V68Z"/><rect x="812" y="69" width="110" height="110"/><rect class="cls-8" x="334" y="68" width="230" height="230"/><rect class="cls-8" x="573" y="68" width="230" height="230"/><rect class="cls-9" x="1171" y="188" width="110" height="110"/><rect class="cls-8" x="95" y="307" width="110" height="110"/><rect class="cls-10" x="95" y="427" width="110" height="110"/><rect class="cls-6" x="334" y="427" width="10" height="110"/><rect class="cls-3" x="354" y="487" width="50" height="50"/><rect class="cls-7" x="216" y="427" width="10" height="110"/><rect class="cls-7" x="256" y="427" width="10" height="110"/><rect class="cls-7" x="236" y="427" width="10" height="110"/></g><g id="Overlays"><rect class="cls-11" width="1371" height="902"/><text class="cls-12" transform="translate(25.24 81.37) scale(0.98 1)"><tspan xml:space="preserve">Name   :</tspan><tspan x="0" y="120" xml:space="preserve">Year   :</tspan><tspan x="0" y="240" xml:space="preserve">Major  :</tspan><tspan x="0" y="360">Classes:</tspan><tspan x="0" y="480" xml:space="preserve">MBTI   :</tspan></text><text class="cls-13" transform="translate(520.69 81.8) scale(0.98 1)">Tori<tspan x="0" y="120">2021</tspan><tspan x="0" y="240">POL</tspan><tspan x="0" y="360">3</tspan><tspan x="0" y="480">INFJ</tspan></text></g></svg>