<svg xmlns="http://www.w3.org/2000/svg" viewBox="0 0 1371 902"><defs><style>.cls-1{fill:#d6b378;}.cls-2{fill:#6e757c;}.cls-3{fill:#51e0ff;}.cls-4{fill:#1917ff;}.cls-5,.cls-8{fill:#fff;}.cls-6{fill:#b3b3b3;}.cls-7{fill:#ffbaff;}.cls-8{opacity:0.8;}.cls-10,.cls-9{font-size:100px;}.cls-9{font-family:CourierNewPS-BoldMT, Courier New;font-weight:700;}.cls-10{font-family:CourierNewPSMT, Courier New;}</style></defs><g id="Layer_1" data-name="Layer 1"><rect class="cls-1" x="503" y="592" width="837" height="310"/><rect class="cls-2" x="1" y="1" width="1369" height="604" rx="30.87"/><path class="cls-1" d="M1339.13,2A29.9,29.9,0,0,1,1369,31.87V574.13A29.9,29.9,0,0,1,1339.13,604H31.87A29.9,29.9,0,0,1,2,574.13V31.87A29.9,29.9,0,0,1,31.87,2H1339.13m0-2H31.87A31.87,31.87,0,0,0,0,31.87V574.13A31.87,31.87,0,0,0,31.87,606H1339.13A31.87,31.87,0,0,0,1371,574.13V31.87A31.87,31.87,0,0,0,1339.13,0Z"/><rect class="cls-3" x="1051" y="752" width="110" height="110"/><rect class="cls-4" x="573" y="631" width="230" height="230"/><rect class="cls-5" x="1231" y="812" width="50" height="50"/><rect class="cls-5" x="1171" y="812" width="50" height="50"/><rect class="cls-5" x="1231" y="753" width="50" height="50"/><rect class="cls-5" x="1171" y="753" width="50" height="50"/><rect class="cls-5" x="1171" y="694" width="50" height="50"/><rect class="cls-5" x="1051" y="632" width="110" height="110"/><rect class="cls-5" x="813" y="752" width="10" height="110"/><rect class="cls-5" x="913" y="752" width="10" height="110"/><rect class="cls-5" x="853" y="752" width="10" height="110"/><rect class="cls-5" x="833" y="752" width="10" height="110"/><rect class="cls-5" x="873" y="752" width="10" height="110"/><rect class="cls-5" x="893" y="752" width="10" height="110"/><rect class="cls-5" x="973" y="752" width="10" height="110"/><rect class="cls-5" x="953" y="752" width="10" height="110"/><rect class="cls-5" x="993" y="752" width="10" height="110"/><rect class="cls-5" x="933" y="752" width="10" height="110"/><rect class="cls-5" x="1033" y="752" width="10" height="110"/><rect class="cls-5" x="1013" y="752" width="10" height="110"/><rect class="cls-5" x="813" y="632" width="10" height="110"/><rect class="cls-5" x="913" y="632" width="10" height="110"/><rect class="cls-5" x="853" y="632" width="10" height="110"/><rect class="cls-5" x="833" y="632" width="10" height="110"/><rect class="cls-5" x="873" y="632" width="10" height="110"/><rect class="cls-5" x="893" y="632" width="10" height="110"/><rect class="cls-5" x="973" y="632" width="10" height="110"/><rect class="cls-5" x="953" y="632" width="10" height="110"/><rect class="cls-5" x="993" y="632" width="10" height="110"/><rect class="cls-5" x="933" y="632" width="10" height="110"/><rect class="cls-5" x="1033" y="632" width="10" height="110"/><rect class="cls-5" x="1013" y="632" width="10" height="110"/><rect class="cls-6" x="95" y="68" width="230" height="230"/><rect x="334" y="188" width="110" height="110"/><rect class="cls-5" x="453" y="68" width="110" height="110"/><rect class="cls-5" x="454" y="188" width="110" height="110"/><rect class="cls-7" x="334" y="68" width="110" height="110"/><path class="cls-5" d="M681,190V296H575V190H681m2-2H573V298H683V188Z"/></g><g id="Overlays"><rect class="cls-8" width="1371" height="902"/><text class="cls-9" transform="translate(25.24 81.37) scale(0.98 1)"><tspan xml:space="preserve">Name   :</tspan><tspan x="0" y="120" xml:space="preserve">Year   :</tspan><tspan x="0" y="240" xml:space="preserve">Major  :</tspan><tspan x="0" y="360">Classes:</tspan><tspan x="0" y="480" xml:space="preserve">MBTI   :</tspan></text><text class="cls-10" transform="translate(520.69 81.8) scale(0.98 1)">Madison<tspan x="0" y="120">2021</tspan><tspan x="0" y="240">EEB</tspan><tspan x="0" y="360">2</tspan><tspan x="0" y="480">ISFJ</tspan></text></g></svg>