<svg xmlns="http://www.w3.org/2000/svg" viewBox="0 0 1371 902"><defs><style>.cls-1{fill:#d6b378;}.cls-2{fill:#6e757c;}.cls-3{fill:#942192;}.cls-4{fill:#ffbaff;}.cls-5{fill:#ff2424;}.cls-6{fill:#ff7b07;}.cls-7{fill:#ff0;}.cls-8{fill:#3c3;}.cls-9{fill:#1aa5ff;}.cls-10{fill:#1917ff;}.cls-11{fill:#7021dc;}.cls-12,.cls-17{fill:#fff;}.cls-13{fill:#b3b3b3;}.cls-14{fill:#fff5b9;}.cls-15{fill:#51e0ff;}.cls-16{fill:#960;}.cls-17{opacity:0.8;}.cls-18,.cls-19{font-size:100px;}.cls-18{font-family:CourierNewPS-BoldMT, Courier New;font-weight:700;}.cls-19{font-family:CourierNewPSMT, Courier New;letter-spacing:-0.01em;}</style></defs><g id="Layer_1" data-name="Layer 1"><rect class="cls-1" x="503" y="592" width="837" height="310"/><rect class="cls-2" x="1" y="1" width="1369" height="604" rx="30.87"/><path class="cls-1" d="M1339.13,2A29.9,29.9,0,0,1,1369,31.87V574.13A29.9,29.9,0,0,1,1339.13,604H31.87A29.9,29.9,0,0,1,2,574.13V31.87A29.9,29.9,0,0,1,31.87,2H1339.13m0-2H31.87A31.87,31.87,0,0,0,0,31.87V574.13A31.87,31.87,0,0,0,31.87,606H1339.13A31.87,31.87,0,0,0,1371,574.13V31.87A31.87,31.87,0,0,0,1339.13,0Z"/><rect class="cls-3" x="813" y="751" width="110" height="110"/><rect class="cls-4" x="1052" y="751" width="10" height="110"/><rect class="cls-5" x="1032" y="751" width="10" height="110"/><rect class="cls-5" x="1012" y="751" width="10" height="110"/><rect class="cls-6" x="992" y="751" width="10" height="110"/><rect class="cls-7" x="972" y="751" width="10" height="110"/><rect class="cls-8" x="952" y="751" width="10" height="110"/><rect class="cls-9" x="1131" y="752" width="10" height="110"/><rect class="cls-10" x="1111" y="751" width="10" height="110"/><rect class="cls-11" x="1091" y="751" width="10" height="110"/><rect class="cls-3" x="1072" y="751" width="10" height="110"/><rect class="cls-12" x="573" y="631" width="230" height="230"/><rect x="813" y="631" width="110" height="110"/><rect class="cls-13" x="95" y="68" width="230" height="230"/><rect class="cls-11" x="752" y="486" width="50" height="50"/><rect class="cls-10" x="752" y="427" width="50" height="50"/><rect class="cls-14" x="780" y="260" width="10" height="10"/><rect class="cls-14" x="765" y="245" width="10" height="10"/><rect class="cls-14" x="765" y="275" width="10" height="10"/><rect class="cls-13" x="95" y="307" width="230" height="230"/><rect class="cls-11" x="193" y="307" width="10" height="110"/><rect class="cls-10" x="213" y="307" width="10" height="110"/><rect class="cls-4" x="95" y="427" width="110" height="110"/><path d="M682,190V296H576V190H682m2-2H574V298H684V188Z"/><path class="cls-12" d="M681,488v46H635V488h46m2-2H633v50h50V486Z"/><path class="cls-12" d="M681,428v46H635V428h46m2-2H633v50h50V426Z"/><path class="cls-12" d="M741,488v46H695V488h46m2-2H693v50h50V486Z"/><path class="cls-12" d="M621,370v46H575V370h46m2-2H573v50h50V368Z"/><path class="cls-12" d="M621,488v46H575V488h46m2-2H573v50h50V486Z"/><path class="cls-12" d="M621,428v46H575V428h46m2-2H573v50h50V426Z"/><path class="cls-12" d="M741,429v46H695V429h46m2-2H693v50h50V427Z"/><rect class="cls-12" x="693" y="68" width="110" height="110"/><rect class="cls-4" x="574" y="68" width="110" height="110"/><rect class="cls-15" x="334" y="307" width="230" height="230"/><path class="cls-12" d="M1159,753V859H933V753h226m2-2H931V861h230V751Z"/><rect class="cls-13" x="394" y="487" width="50" height="50"/><rect class="cls-13" x="334" y="427" width="50" height="50"/><rect class="cls-7" x="454" y="487" width="50" height="50"/><rect class="cls-8" x="454" y="427" width="50" height="50"/><rect class="cls-13" x="334" y="487" width="50" height="50"/><rect x="394" y="427" width="50" height="50"/><rect class="cls-14" x="765" y="260" width="10" height="10"/><rect class="cls-14" x="780" y="245" width="10" height="10"/><rect class="cls-14" x="780" y="275" width="10" height="10"/><rect class="cls-14" x="750" y="245" width="10" height="10"/><rect class="cls-14" x="750" y="275" width="10" height="10"/><rect class="cls-16" x="705" y="200" width="10" height="10"/><rect class="cls-14" x="750" y="260" width="10" height="10"/><rect class="cls-16" x="735" y="245" width="10" height="10"/><rect class="cls-16" x="720" y="260" width="10" height="10"/><rect class="cls-16" x="705" y="275" width="10" height="10"/><rect class="cls-16" x="720" y="245" width="10" height="10"/><rect class="cls-16" x="720" y="275" width="10" height="10"/><rect class="cls-16" x="705" y="230" width="10" height="10"/><rect class="cls-16" x="735" y="260" width="10" height="10"/><rect class="cls-16" x="705" y="245" width="10" height="10"/><rect class="cls-16" x="705" y="260" width="10" height="10"/><rect class="cls-16" x="735" y="275" width="10" height="10"/><rect class="cls-16" x="705" y="215" width="10" height="10"/><rect class="cls-13" x="334" y="68" width="230" height="230"/><rect class="cls-4" x="499" y="233" width="50" height="50"/><rect class="cls-16" x="735" y="200" width="10" height="10"/><rect class="cls-16" x="720" y="215" width="10" height="10"/><rect class="cls-16" x="720" y="200" width="10" height="10"/><rect class="cls-16" x="720" y="230" width="10" height="10"/><rect class="cls-16" x="735" y="215" width="10" height="10"/><rect class="cls-16" x="735" y="230" width="10" height="10"/><rect class="cls-14" x="780" y="215" width="10" height="10"/><rect class="cls-14" x="765" y="200" width="10" height="10"/><rect class="cls-14" x="765" y="230" width="10" height="10"/><rect class="cls-14" x="765" y="215" width="10" height="10"/><rect class="cls-14" x="780" y="200" width="10" height="10"/><rect class="cls-14" x="780" y="230" width="10" height="10"/><rect class="cls-14" x="750" y="200" width="10" height="10"/><rect class="cls-14" x="750" y="230" width="10" height="10"/><rect class="cls-14" x="750" y="215" width="10" height="10"/><path class="cls-12" d="M801,190V296H695V190H801m2-2H693V298H803V188Z"/><rect class="cls-11" x="173" y="307" width="10" height="110"/><rect class="cls-8" x="153" y="307" width="10" height="110"/><rect class="cls-7" x="133" y="307" width="10" height="110"/><rect class="cls-15" x="114" y="307" width="10" height="110"/><rect class="cls-4" x="94" y="307" width="10" height="110"/><rect x="514" y="427" width="10" height="110"/><rect class="cls-10" x="812" y="426" width="10" height="110"/><rect x="783" y="751" width="10" height="110"/></g><g id="Overlays"><rect class="cls-17" width="1371" height="902"/><text class="cls-18" transform="translate(25.24 81.37) scale(0.98 1)"><tspan xml:space="preserve">Name   :</tspan><tspan x="0" y="120" xml:space="preserve">Year   :</tspan><tspan x="0" y="240" xml:space="preserve">Major  :</tspan><tspan x="0" y="360">Classes:</tspan><tspan x="0" y="480" xml:space="preserve">MBTI   :</tspan></text><text/><text class="cls-19" transform="translate(520.69 81.8) scale(0.98 1)">Theresa<tspan x="0" y="120">2024</tspan><tspan x="0" y="240">COS</tspan><tspan x="0" y="360">5</tspan><tspan x="0" y="480">ENTJ</tspan></text></g></svg>