<svg xmlns="http://www.w3.org/2000/svg" viewBox="0 0 1371 902"><defs><style>.cls-1{fill:#d6b378;}.cls-2{fill:#6e757c;}.cls-3,.cls-5{fill:#fff;}.cls-4{fill:#3c3;}.cls-5{opacity:0.8;}.cls-6,.cls-7{font-size:100px;}.cls-6{font-family:CourierNewPS-BoldMT, Courier New;font-weight:700;}.cls-7{font-family:CourierNewPSMT, Courier New;}</style></defs><g id="Layer_1" data-name="Layer 1"><rect class="cls-1" x="503" y="592" width="837" height="310"/><rect class="cls-2" x="1" y="1" width="1369" height="604" rx="30.87"/><path class="cls-1" d="M1339.13,2A29.9,29.9,0,0,1,1369,31.87V574.13A29.9,29.9,0,0,1,1339.13,604H31.87A29.9,29.9,0,0,1,2,574.13V31.87A29.9,29.9,0,0,1,31.87,2H1339.13m0-2H31.87A31.87,31.87,0,0,0,0,31.87V574.13A31.87,31.87,0,0,0,31.87,606H1339.13A31.87,31.87,0,0,0,1371,574.13V31.87A31.87,31.87,0,0,0,1339.13,0Z"/><path d="M1040,190V296h-6V190h6m2-2h-10V298h10V188Z"/><path d="M1020,190V296h-6V190h6m2-2h-10V298h10V188Z"/><path d="M1000,190V296h-6V190h6m2-2H992V298h10V188Z"/><path d="M980,190V296h-6V190h6m2-2H972V298h10V188Z"/><rect class="cls-3" x="952" y="188" width="10" height="110"/><rect class="cls-4" x="932" y="188" width="10" height="110"/><path d="M1119,190V296h-6V190h6m2-2h-10V298h10V188Z"/><path d="M1099,190V296h-6V190h6m2-2h-10V298h10V188Z"/><path d="M1079,190V296h-6V190h6m2-2h-10V298h10V188Z"/><path d="M1060,190V296h-6V190h6m2-2h-10V298h10V188Z"/><rect x="95" y="68" width="230" height="230"/><rect x="334" y="68" width="230" height="230"/><rect class="cls-3" x="443" y="177" width="110" height="110"/><rect class="cls-3" x="573" y="68" width="230" height="230"/><rect x="812" y="188" width="110" height="110"/><rect class="cls-3" x="812" y="128" width="50" height="50"/></g><g id="Overlays"><rect class="cls-5" width="1371" height="902"/><text class="cls-6" transform="translate(25.24 81.37) scale(0.98 1)"><tspan xml:space="preserve">Name   :</tspan><tspan x="0" y="120" xml:space="preserve">Year   :</tspan><tspan x="0" y="240" xml:space="preserve">Major  :</tspan><tspan x="0" y="360">Classes:</tspan><tspan x="0" y="480" xml:space="preserve">MBTI   :</tspan></text><text class="cls-7" transform="translate(520.69 81.8) scale(0.98 1)">Theresa Lim<tspan x="0" y="120">2024</tspan><tspan x="0" y="240">COS</tspan><tspan x="0" y="360">5</tspan><tspan x="0" y="480">ENTJ</tspan></text></g></svg>