<svg xmlns="http://www.w3.org/2000/svg" viewBox="0 0 1371 902"><defs><style>.cls-1{fill:#d6b378;}.cls-2{fill:#6e757c;}.cls-14,.cls-3{fill:#fff;}.cls-4{fill:#51e0ff;}.cls-5{fill:#ff7b07;}.cls-6{fill:#b3b3b3;}.cls-7{fill:#960;}.cls-8{fill:#fff5b9;}.cls-9{fill:#ffbaff;}.cls-10{fill:#1917ff;}.cls-11{fill:#ff2424;}.cls-12{fill:#3c3;}.cls-13{fill:#ff0;}.cls-14{opacity:0.8;}.cls-15,.cls-16{font-size:100px;}.cls-15{font-family:CourierNewPS-BoldMT, Courier New;font-weight:700;}.cls-16{font-family:CourierNewPSMT, Courier New;}</style></defs><g id="Layer_1" data-name="Layer 1"><rect class="cls-1" x="503" y="592" width="837" height="310"/><rect class="cls-2" x="1" y="1" width="1369" height="604" rx="30.87"/><path class="cls-1" d="M1339.13,2A29.9,29.9,0,0,1,1369,31.87V574.13A29.9,29.9,0,0,1,1339.13,604H31.87A29.9,29.9,0,0,1,2,574.13V31.87A29.9,29.9,0,0,1,31.87,2H1339.13m0-2H31.87A31.87,31.87,0,0,0,0,31.87V574.13A31.87,31.87,0,0,0,31.87,606H1339.13A31.87,31.87,0,0,0,1371,574.13V31.87A31.87,31.87,0,0,0,1339.13,0Z"/><rect class="cls-3" x="1051" y="631" width="230" height="230"/><rect class="cls-4" x="573" y="632" width="230" height="230"/><rect class="cls-3" x="812" y="631" width="230" height="230"/><rect x="1171" y="811" width="50" height="50"/><rect class="cls-5" x="1051" y="751" width="110" height="110"/><rect class="cls-3" x="95" y="68" width="230" height="230"/><rect class="cls-3" x="95" y="307" width="469" height="230"/><rect class="cls-6" x="334" y="68" width="230" height="230"/><rect x="573" y="68" width="230" height="230"/><rect class="cls-3" x="815" y="68" width="110" height="110"/><rect x="815" y="128" width="50" height="50"/><rect class="cls-7" x="875" y="128" width="50" height="50"/><rect class="cls-8" x="1051" y="188" width="50" height="50"/><rect x="815" y="188" width="110" height="110"/><rect class="cls-9" x="932" y="188" width="110" height="110"/><rect class="cls-3" x="932" y="69" width="110" height="110"/><rect class="cls-9" x="1051" y="248" width="50" height="50"/><rect x="115" y="427" width="10" height="110"/><rect x="215" y="427" width="10" height="110"/><rect x="155" y="427" width="10" height="110"/><rect x="135" y="427" width="10" height="110"/><rect x="175" y="427" width="10" height="110"/><rect x="195" y="427" width="10" height="110"/><rect class="cls-10" x="275" y="427" width="10" height="110"/><rect class="cls-10" x="255" y="427" width="10" height="110"/><rect class="cls-10" x="295" y="427" width="10" height="110"/><rect x="235" y="427" width="10" height="110"/><rect class="cls-10" x="315" y="427" width="10" height="110"/><rect class="cls-11" x="394" y="427" width="10" height="110"/><rect class="cls-11" x="434" y="427" width="10" height="110"/><rect class="cls-11" x="414" y="427" width="10" height="110"/><rect x="95" y="427" width="10" height="110"/><rect class="cls-12" x="454" y="427" width="10" height="110"/><rect class="cls-13" x="334" y="427" width="10" height="110"/><rect class="cls-6" x="494" y="427" width="10" height="110"/><path class="cls-6" d="M203,309V415H97V309H203m2-2H95V417H205V307Z"/><rect x="274" y="367" width="50" height="50"/><rect x="214" y="367" width="50" height="50"/><rect class="cls-13" x="354" y="427" width="10" height="110"/><rect class="cls-13" x="394" y="427" width="10" height="110"/><rect class="cls-13" x="374" y="427" width="10" height="110"/><rect class="cls-12" x="474" y="427" width="10" height="110"/></g><g id="Overlays"><rect class="cls-14" width="1371" height="902"/><text class="cls-15" transform="translate(25.24 81.37) scale(0.98 1)"><tspan xml:space="preserve">Name   :</tspan><tspan x="0" y="120" xml:space="preserve">Year   :</tspan><tspan x="0" y="240" xml:space="preserve">Major  :</tspan><tspan x="0" y="360">Classes:</tspan><tspan x="0" y="480" xml:space="preserve">MBTI   :</tspan></text><text class="cls-16" transform="translate(520.69 81.8) scale(0.98 1)">Kasia<tspan x="0" y="120">2022</tspan><tspan x="0" y="240">PHY</tspan><tspan x="0" y="360">5</tspan><tspan x="0" y="480">INTJ</tspan></text></g></svg>